<svg xmlns="http://www.w3.org/2000/svg" xmlns:xlink="http://www.w3.org/1999/xlink" width="200" zoomAndPan="magnify" viewBox="0 0 150 56.249996" height="75" preserveAspectRatio="xMidYMid meet" version="1.0"><defs><g/><clipPath id="8667486093"><path d="M 0.988281 0 L 149.011719 0 L 149.011719 55.511719 L 0.988281 55.511719 Z M 0.988281 0 " clip-rule="nonzero"/></clipPath></defs><g clip-path="url(#8667486093)"><path fill="#ffffff" d="M 0.988281 0 L 149.011719 0 L 149.011719 55.511719 L 0.988281 55.511719 Z M 0.988281 0 " fill-opacity="1" fill-rule="nonzero"/><path fill="#ffffff" d="M 0.988281 0 L 149.011719 0 L 149.011719 55.511719 L 0.988281 55.511719 Z M 0.988281 0 " fill-opacity="1" fill-rule="nonzero"/></g><g fill="#000000" fill-opacity="1"><g transform="translate(4.702463, 45.078851)"><g><path d="M 4.1875 -19.484375 L 9.09375 -19.484375 L 12.734375 0 L 8.765625 0 L 8.109375 -4.109375 L 5.25 -4.109375 L 4.578125 0 L 0.5 0 Z M 7.703125 -6.6875 L 6.671875 -14.296875 L 5.625 -6.6875 Z M 7.703125 -6.6875 "/></g></g></g><g fill="#000000" fill-opacity="1"><g transform="translate(17.962704, 45.078851)"><g><path d="M 1.4375 -19.484375 L 4.46875 -19.484375 L 8.46875 -10.109375 L 8.46875 -19.484375 L 12.03125 -19.484375 L 12.03125 0 L 9.125 0 L 5.125 -10.109375 L 5.125 0 L 1.4375 0 Z M 1.4375 -19.484375 "/></g></g></g><g fill="#000000" fill-opacity="1"><g transform="translate(31.463599, 45.078851)"><g><path d="M 1.4375 -19.484375 L 6.375 -19.484375 C 8.0625 -19.484375 9.378906 -19.273438 10.328125 -18.859375 C 11.273438 -18.441406 11.941406 -17.785156 12.328125 -16.890625 C 12.722656 -16.003906 12.921875 -14.816406 12.921875 -13.328125 L 12.921875 -6.25 C 12.921875 -4.75 12.722656 -3.546875 12.328125 -2.640625 C 11.941406 -1.742188 11.273438 -1.078125 10.328125 -0.640625 C 9.390625 -0.210938 8.085938 0 6.421875 0 L 1.4375 0 Z M 6.421875 -2.984375 C 7.046875 -2.984375 7.503906 -3.070312 7.796875 -3.25 C 8.097656 -3.4375 8.289062 -3.703125 8.375 -4.046875 C 8.457031 -4.398438 8.5 -4.910156 8.5 -5.578125 L 8.5 -14.078125 C 8.5 -14.703125 8.453125 -15.175781 8.359375 -15.5 C 8.273438 -15.832031 8.082031 -16.078125 7.78125 -16.234375 C 7.488281 -16.398438 7.03125 -16.484375 6.40625 -16.484375 L 5.75 -16.484375 L 5.75 -2.984375 Z M 6.421875 -2.984375 "/></g></g></g><g fill="#000000" fill-opacity="1"><g transform="translate(45.566133, 45.078851)"><g><path d="M 1.4375 -19.484375 L 6.8125 -19.484375 C 8.945312 -19.484375 10.554688 -19.109375 11.640625 -18.359375 C 12.734375 -17.609375 13.28125 -16.269531 13.28125 -14.34375 C 13.28125 -13.039062 13.109375 -12.003906 12.765625 -11.234375 C 12.429688 -10.460938 11.8125 -9.863281 10.90625 -9.4375 L 13.578125 0 L 9.125 0 L 6.984375 -8.734375 L 5.75 -8.734375 L 5.75 0 L 1.4375 0 Z M 6.953125 -11.21875 C 7.816406 -11.21875 8.421875 -11.441406 8.765625 -11.890625 C 9.109375 -12.347656 9.28125 -13.035156 9.28125 -13.953125 C 9.28125 -14.835938 9.117188 -15.5 8.796875 -15.9375 C 8.484375 -16.382812 7.929688 -16.609375 7.140625 -16.609375 L 5.75 -16.609375 L 5.75 -11.21875 Z M 6.953125 -11.21875 "/></g></g></g><g fill="#000000" fill-opacity="1"><g transform="translate(60.005597, 45.078851)"><g><path d="M 1.4375 -19.484375 L 10.203125 -19.484375 L 10.203125 -16.5625 L 5.75 -16.5625 L 5.75 -11.71875 L 9.140625 -11.71875 L 9.140625 -8.734375 L 5.75 -8.734375 L 5.75 -2.90625 L 10.25 -2.90625 L 10.25 0 L 1.4375 0 Z M 1.4375 -19.484375 "/></g></g></g><g fill="#000000" fill-opacity="1"><g transform="translate(70.762993, 45.078851)"><g><path d="M 6.609375 0.28125 C 4.753906 0.28125 3.375 -0.207031 2.46875 -1.1875 C 1.5625 -2.175781 1.078125 -3.742188 1.015625 -5.890625 L 4.6875 -6.453125 C 4.707031 -5.210938 4.859375 -4.320312 5.140625 -3.78125 C 5.421875 -3.25 5.84375 -2.984375 6.40625 -2.984375 C 7.125 -2.984375 7.484375 -3.457031 7.484375 -4.40625 C 7.484375 -5.15625 7.3125 -5.800781 6.96875 -6.34375 C 6.625 -6.894531 6.082031 -7.484375 5.34375 -8.109375 L 3.65625 -9.578125 C 2.820312 -10.285156 2.175781 -11.035156 1.71875 -11.828125 C 1.257812 -12.617188 1.03125 -13.5625 1.03125 -14.65625 C 1.03125 -16.289062 1.515625 -17.546875 2.484375 -18.421875 C 3.460938 -19.304688 4.800781 -19.75 6.5 -19.75 C 8.34375 -19.75 9.597656 -19.210938 10.265625 -18.140625 C 10.929688 -17.066406 11.285156 -15.757812 11.328125 -14.21875 L 7.625 -13.765625 C 7.59375 -14.773438 7.5 -15.5 7.34375 -15.9375 C 7.195312 -16.382812 6.867188 -16.609375 6.359375 -16.609375 C 5.984375 -16.609375 5.695312 -16.453125 5.5 -16.140625 C 5.300781 -15.828125 5.203125 -15.476562 5.203125 -15.09375 C 5.203125 -14.425781 5.347656 -13.867188 5.640625 -13.421875 C 5.941406 -12.972656 6.421875 -12.460938 7.078125 -11.890625 L 8.6875 -10.46875 C 9.644531 -9.644531 10.390625 -8.773438 10.921875 -7.859375 C 11.453125 -6.953125 11.71875 -5.875 11.71875 -4.625 C 11.71875 -3.707031 11.503906 -2.875 11.078125 -2.125 C 10.648438 -1.382812 10.050781 -0.796875 9.28125 -0.359375 C 8.519531 0.0664062 7.628906 0.28125 6.609375 0.28125 Z M 6.609375 0.28125 "/></g></g></g><g fill="#000000" fill-opacity="1"><g transform="translate(83.132798, 45.078851)"><g><path d="M 6.609375 0.28125 C 4.753906 0.28125 3.375 -0.207031 2.46875 -1.1875 C 1.5625 -2.175781 1.078125 -3.742188 1.015625 -5.890625 L 4.6875 -6.453125 C 4.707031 -5.210938 4.859375 -4.320312 5.140625 -3.78125 C 5.421875 -3.25 5.84375 -2.984375 6.40625 -2.984375 C 7.125 -2.984375 7.484375 -3.457031 7.484375 -4.40625 C 7.484375 -5.15625 7.3125 -5.800781 6.96875 -6.34375 C 6.625 -6.894531 6.082031 -7.484375 5.34375 -8.109375 L 3.65625 -9.578125 C 2.820312 -10.285156 2.175781 -11.035156 1.71875 -11.828125 C 1.257812 -12.617188 1.03125 -13.5625 1.03125 -14.65625 C 1.03125 -16.289062 1.515625 -17.546875 2.484375 -18.421875 C 3.460938 -19.304688 4.800781 -19.75 6.5 -19.75 C 8.34375 -19.75 9.597656 -19.210938 10.265625 -18.140625 C 10.929688 -17.066406 11.285156 -15.757812 11.328125 -14.21875 L 7.625 -13.765625 C 7.59375 -14.773438 7.5 -15.5 7.34375 -15.9375 C 7.195312 -16.382812 6.867188 -16.609375 6.359375 -16.609375 C 5.984375 -16.609375 5.695312 -16.453125 5.5 -16.140625 C 5.300781 -15.828125 5.203125 -15.476562 5.203125 -15.09375 C 5.203125 -14.425781 5.347656 -13.867188 5.640625 -13.421875 C 5.941406 -12.972656 6.421875 -12.460938 7.078125 -11.890625 L 8.6875 -10.46875 C 9.644531 -9.644531 10.390625 -8.773438 10.921875 -7.859375 C 11.453125 -6.953125 11.71875 -5.875 11.71875 -4.625 C 11.71875 -3.707031 11.503906 -2.875 11.078125 -2.125 C 10.648438 -1.382812 10.050781 -0.796875 9.28125 -0.359375 C 8.519531 0.0664062 7.628906 0.28125 6.609375 0.28125 Z M 6.609375 0.28125 "/></g></g></g><g fill="#000000" fill-opacity="1"><g transform="translate(95.502603, 45.078851)"><g><path d="M 4.1875 -19.484375 L 9.09375 -19.484375 L 12.734375 0 L 8.765625 0 L 8.109375 -4.109375 L 5.25 -4.109375 L 4.578125 0 L 0.5 0 Z M 7.703125 -6.6875 L 6.671875 -14.296875 L 5.625 -6.6875 Z M 7.703125 -6.6875 "/></g></g></g><g fill="#000000" fill-opacity="1"><g transform="translate(108.762844, 45.078851)"><g><path d="M 1.109375 -3.703125 L 4.8125 -3.703125 L 4.8125 0 L 1.109375 0 Z M 1.109375 -3.703125 "/></g></g></g><g fill="#000000" fill-opacity="1"><g transform="translate(114.634893, 45.078851)"><g><path d="M 1.4375 -19.484375 L 7.984375 -19.484375 C 9.703125 -19.484375 10.984375 -19 11.828125 -18.03125 C 12.679688 -17.0625 13.109375 -15.660156 13.109375 -13.828125 C 13.109375 -11.742188 12.613281 -10.296875 11.625 -9.484375 C 10.644531 -8.679688 9.265625 -8.28125 7.484375 -8.28125 L 5.75 -8.28125 L 5.75 0 L 1.4375 0 Z M 7.1875 -11.28125 C 7.945312 -11.28125 8.453125 -11.476562 8.703125 -11.875 C 8.953125 -12.28125 9.078125 -12.957031 9.078125 -13.90625 C 9.078125 -14.769531 8.953125 -15.410156 8.703125 -15.828125 C 8.460938 -16.242188 7.953125 -16.453125 7.171875 -16.453125 L 5.75 -16.453125 L 5.75 -11.28125 Z M 7.1875 -11.28125 "/></g></g></g><g fill="#000000" fill-opacity="1"><g transform="translate(128.376441, 45.078851)"><g><path d="M 3.890625 -7.96875 L 0.1875 -19.484375 L 4.265625 -19.484375 L 6.109375 -13.328125 L 7.765625 -19.484375 L 11.671875 -19.484375 L 8.03125 -7.96875 L 8.03125 0 L 3.890625 0 Z M 3.890625 -7.96875 "/></g></g></g></svg>